# xmcd
#
# Track frame offsets:
#	150
#	18627
#	34755
#	51972
#	73901
#	87733
#	106238
#	122010
#	137968
#	152595
#
# Disc length: 2256 seconds
#
# Revision: 9
# Processed by: cddbd v1.5.2PL0 Copyright (c) Steve Scherf et al.
# Submitted via: audiograbber 1.83.01
#
DISCID=8e08ce0a
DTITLE=ZZ Top - Afterburner [CD-R)
DYEAR=1985
DGENRE=Rock
TTITLE0=Sleeping Bag
TTITLE1=Stages
TTITLE2=Woke Up With Wood
TTITLE3=Rough Boy
TTITLE4=Can't Stop Rockin'
TTITLE5=Planet Of Women
TTITLE6=I Got The Message
TTITLE7=Velcro Fly
TTITLE8=Dipping Low (In The Lap Of Luxury)
TTITLE9=Delirious
EXTD=
EXTT0=
EXTT1=
EXTT2=
EXTT3=
EXTT4=
EXTT5=
EXTT6=
EXTT7=
EXTT8=
EXTT9=
PLAYORDER=
